<svg width="49" height="66" viewBox="0 0 49 66" fill="none" xmlns="http://www.w3.org/2000/svg">
<g clip-path="url(#clip0_1_1589)">
<path d="M1.93951 6.99968C3.86499 6.99968 5.4259 5.43275 5.4259 3.49984C5.4259 1.56693 3.86499 0 1.93951 0C0.0140326 0 -1.54688 1.56693 -1.54688 3.49984C-1.54688 5.43275 0.0140326 6.99968 1.93951 6.99968Z" fill="black"/>
<path d="M23.5645 6.99968C25.49 6.99968 27.0509 5.43275 27.0509 3.49984C27.0509 1.56693 25.49 0 23.5645 0C21.639 0 20.0781 1.56693 20.0781 3.49984C20.0781 5.43275 21.639 6.99968 23.5645 6.99968Z" fill="black"/>
<path d="M48.6642 3.49984C48.6642 5.43505 47.1056 6.99968 45.1778 6.99968C43.25 6.99968 41.6914 5.43505 41.6914 3.49984C41.6914 1.56463 43.25 0 45.1778 0C47.1056 0 48.6642 1.56463 48.6642 3.49984Z" fill="black"/>
<path d="M1.93951 26.434C3.86499 26.434 5.4259 24.8671 5.4259 22.9342C5.4259 21.0013 3.86499 19.4343 1.93951 19.4343C0.0140326 19.4343 -1.54688 21.0013 -1.54688 22.9342C-1.54688 24.8671 0.0140326 26.434 1.93951 26.434Z" fill="black"/>
<path d="M23.5645 26.434C25.49 26.434 27.0509 24.8671 27.0509 22.9342C27.0509 21.0013 25.49 19.4343 23.5645 19.4343C21.639 19.4343 20.0781 21.0013 20.0781 22.9342C20.0781 24.8671 21.639 26.434 23.5645 26.434Z" fill="black"/>
<path d="M48.6642 22.9342C48.6642 24.8694 47.1056 26.434 45.1778 26.434C43.25 26.434 41.6914 24.8694 41.6914 22.9342C41.6914 20.999 43.25 19.4343 45.1778 19.4343C47.1056 19.4343 48.6642 20.999 48.6642 22.9342Z" fill="black"/>
<path d="M1.93951 45.8686C3.86499 45.8686 5.4259 44.3016 5.4259 42.3687C5.4259 40.4358 3.86499 38.8689 1.93951 38.8689C0.0140326 38.8689 -1.54688 40.4358 -1.54688 42.3687C-1.54688 44.3016 0.0140326 45.8686 1.93951 45.8686Z" fill="black"/>
<path d="M23.5645 45.8686C25.49 45.8686 27.0509 44.3016 27.0509 42.3687C27.0509 40.4358 25.49 38.8689 23.5645 38.8689C21.639 38.8689 20.0781 40.4358 20.0781 42.3687C20.0781 44.3016 21.639 45.8686 23.5645 45.8686Z" fill="black"/>
<path d="M48.6642 42.3687C48.6642 44.3039 47.1056 45.8686 45.1778 45.8686C43.25 45.8686 41.6914 44.3039 41.6914 42.3687C41.6914 40.4335 43.25 38.8689 45.1778 38.8689C47.1056 38.8689 48.6642 40.4335 48.6642 42.3687Z" fill="black"/>
<path d="M1.93951 65.3029C3.86499 65.3029 5.4259 63.736 5.4259 61.8031C5.4259 59.8702 3.86499 58.3032 1.93951 58.3032C0.0140326 58.3032 -1.54688 59.8702 -1.54688 61.8031C-1.54688 63.736 0.0140326 65.3029 1.93951 65.3029Z" fill="black"/>
<path d="M23.5645 65.3029C25.49 65.3029 27.0509 63.736 27.0509 61.8031C27.0509 59.8702 25.49 58.3032 23.5645 58.3032C21.639 58.3032 20.0781 59.8702 20.0781 61.8031C20.0781 63.736 21.639 65.3029 23.5645 65.3029Z" fill="black"/>
<path d="M48.6642 61.8031C48.6642 63.7383 47.1056 65.3029 45.1778 65.3029C43.25 65.3029 41.6914 63.7383 41.6914 61.8031C41.6914 59.8679 43.25 58.3032 45.1778 58.3032C47.1056 58.3032 48.6642 59.8679 48.6642 61.8031Z" fill="black"/>
</g>
<defs>
<clipPath id="clip0_1_1589">
<rect width="71.8332" height="65.3029" fill="white" transform="translate(-23.168)"/>
</clipPath>
</defs>
</svg>
